<svg width="1100" height="1100" viewBox="0 0 1100 1100" fill="none" xmlns="http://www.w3.org/2000/svg">
<g clip-path="url(#clip0)">
<rect x="1100" y="1000" width="100" height="100" transform="rotate(90 1100 1000)" fill="#D43220"/>
<rect x="1000" y="1000" width="100" height="100" transform="rotate(90 1000 1000)" fill="#D43220"/>
<rect x="900" y="1000" width="100" height="100" transform="rotate(90 900 1000)" fill="#D43220"/>
<rect x="800" y="1000" width="100" height="100" transform="rotate(90 800 1000)" fill="#D43220"/>
<rect x="800" y="900" width="100" height="100" transform="rotate(90 800 900)" fill="#D43220"/>
<rect x="800" y="900" width="100" height="100" transform="rotate(90 800 900)" fill="#D43220"/>
<rect x="800" y="800" width="100" height="100" transform="rotate(90 800 800)" fill="#D43220"/>
<rect x="900" y="800" width="100" height="100" transform="rotate(90 900 800)" fill="#D43220"/>
<rect x="1100" y="900" width="100" height="100" transform="rotate(90 1100 900)" fill="#D43220"/>
<rect x="1100" y="800" width="100" height="100" transform="rotate(90 1100 800)" fill="#D43220"/>
<rect x="1100" y="700" width="100" height="100" transform="rotate(90 1100 700)" fill="#D43220"/>
<rect x="1100" y="600" width="100" height="100" transform="rotate(90 1100 600)" fill="#D43220"/>
<rect x="1000" y="600" width="100" height="100" transform="rotate(90 1000 600)" fill="#D43220"/>
<rect x="900" y="600" width="100" height="100" transform="rotate(90 900 600)" fill="#D43220"/>
<rect x="800" y="600" width="100" height="100" transform="rotate(90 800 600)" fill="#D43220"/>
<rect x="700" y="600" width="100" height="100" transform="rotate(90 700 600)" fill="#D43220"/>
<rect x="600" y="600" width="100" height="100" transform="rotate(90 600 600)" fill="#D43220"/>
<rect x="600" y="700" width="100" height="100" transform="rotate(90 600 700)" fill="#D43220"/>
<rect x="600" y="800" width="100" height="100" transform="rotate(90 600 800)" fill="#D43220"/>
<rect x="600" y="900" width="100" height="100" transform="rotate(90 600 900)" fill="#D43220"/>
<rect x="600" y="1000" width="100" height="100" transform="rotate(90 600 1000)" fill="#D43220"/>
<rect x="500" y="1000" width="100" height="100" transform="rotate(90 500 1000)" fill="#D43220"/>
<rect x="300" y="1000" width="100" height="100" transform="rotate(90 300 1000)" fill="#D43220"/>
<rect x="400" y="1000" width="100" height="100" transform="rotate(90 400 1000)" fill="#D43220"/>
<rect x="200" y="1000" width="100" height="100" transform="rotate(90 200 1000)" fill="#D43220"/>
<rect x="100" y="1000" width="100" height="100" transform="rotate(90 100 1000)" fill="#D43220"/>
<rect x="100" y="900" width="100" height="100" transform="rotate(90 100 900)" fill="#D43220"/>
<rect x="100" y="800" width="100" height="100" transform="rotate(90 100 800)" fill="#D43220"/>
<rect x="100" y="700" width="100" height="100" transform="rotate(90 100 700)" fill="#D43220"/>
<rect x="100" y="600" width="100" height="100" transform="rotate(90 100 600)" fill="#D43220"/>
<rect x="200" y="600" width="100" height="100" transform="rotate(90 200 600)" fill="#D43220"/>
<rect x="300" y="600" width="100" height="100" transform="rotate(90 300 600)" fill="#D43220"/>
<rect x="400" y="600" width="100" height="100" transform="rotate(90 400 600)" fill="#D43220"/>
<rect x="400" y="700" width="100" height="100" transform="rotate(90 400 700)" fill="#D43220"/>
<rect x="400" y="800" width="100" height="100" transform="rotate(90 400 800)" fill="#D43220"/>
<rect x="300" y="800" width="100" height="100" transform="rotate(90 300 800)" fill="#D43220"/>
<rect x="1100" y="400" width="100" height="100" transform="rotate(90 1100 400)" fill="#D43220"/>
<rect x="1000" y="400" width="100" height="100" transform="rotate(90 1000 400)" fill="#D43220"/>
<rect x="900" y="400" width="100" height="100" transform="rotate(90 900 400)" fill="#D43220"/>
<rect x="800" y="400" width="100" height="100" transform="rotate(90 800 400)" fill="#D43220"/>
<rect x="800" y="300" width="100" height="100" transform="rotate(90 800 300)" fill="#D43220"/>
<rect x="800" y="300" width="100" height="100" transform="rotate(90 800 300)" fill="#D43220"/>
<rect x="800" y="200" width="100" height="100" transform="rotate(90 800 200)" fill="#D43220"/>
<rect x="900" y="200" width="100" height="100" transform="rotate(90 900 200)" fill="#D43220"/>
<rect x="1100" y="300" width="100" height="100" transform="rotate(90 1100 300)" fill="#D43220"/>
<rect x="1100" y="200" width="100" height="100" transform="rotate(90 1100 200)" fill="#D43220"/>
<rect x="1100" y="100" width="100" height="100" transform="rotate(90 1100 100)" fill="#D43220"/>
<rect x="1100" width="100" height="100" transform="rotate(90 1100 0)" fill="#D43220"/>
<rect x="1000" width="100" height="100" transform="rotate(90 1000 0)" fill="#D43220"/>
<rect x="900" width="100" height="100" transform="rotate(90 900 0)" fill="#D43220"/>
<rect x="800" width="100" height="100" transform="rotate(90 800 0)" fill="#D43220"/>
<rect x="700" width="100" height="100" transform="rotate(90 700 0)" fill="#D43220"/>
<rect x="600" width="100" height="100" transform="rotate(90 600 0)" fill="#D43220"/>
<rect x="600" y="100" width="100" height="100" transform="rotate(90 600 100)" fill="#D43220"/>
<rect x="600" y="200" width="100" height="100" transform="rotate(90 600 200)" fill="#D43220"/>
<rect x="600" y="300" width="100" height="100" transform="rotate(90 600 300)" fill="#D43220"/>
<rect x="600" y="400" width="100" height="100" transform="rotate(90 600 400)" fill="#D43220"/>
<rect x="500" y="400" width="100" height="100" transform="rotate(90 500 400)" fill="#D43220"/>
<rect x="300" y="400" width="100" height="100" transform="rotate(90 300 400)" fill="#D43220"/>
<rect x="400" y="400" width="100" height="100" transform="rotate(90 400 400)" fill="#D43220"/>
<rect x="200" y="400" width="100" height="100" transform="rotate(90 200 400)" fill="#D43220"/>
<rect x="100" y="400" width="100" height="100" transform="rotate(90 100 400)" fill="#D43220"/>
<rect x="100" y="300" width="100" height="100" transform="rotate(90 100 300)" fill="#D43220"/>
<rect x="100" y="200" width="100" height="100" transform="rotate(90 100 200)" fill="#D43220"/>
<rect x="100" y="100" width="100" height="100" transform="rotate(90 100 100)" fill="#D43220"/>
<rect x="100" width="100" height="100" transform="rotate(90 100 0)" fill="#D43220"/>
<rect x="200" width="100" height="100" transform="rotate(90 200 0)" fill="#D43220"/>
<rect x="300" width="100" height="100" transform="rotate(90 300 0)" fill="#D43220"/>
<rect x="400" width="100" height="100" transform="rotate(90 400 0)" fill="#D43220"/>
<rect x="400" y="100" width="100" height="100" transform="rotate(90 400 100)" fill="#D43220"/>
<rect x="400" y="200" width="100" height="100" transform="rotate(90 400 200)" fill="#D43220"/>
<rect x="300" y="200" width="100" height="100" transform="rotate(90 300 200)" fill="#D43220"/>
</g>
<defs>
<clipPath id="clip0">
<rect width="1100" height="1100" fill="white"/>
</clipPath>
</defs>
</svg>
